<?xml version="1.0" encoding="UTF-8"?>
<svg width="82px" height="43px" viewBox="0 0 82 43" version="1.1" xmlns="http://www.w3.org/2000/svg" xmlns:xlink="http://www.w3.org/1999/xlink">
    <!-- Generator: Sketch 50.2 (55047) - http://www.bohemiancoding.com/sketch -->
    <title>true-logo-vector</title>
    <desc>Created with Sketch.</desc>
    <defs></defs>
    <g id="ICO-LandingPage" stroke="none" stroke-width="1" fill="none" fill-rule="evenodd">
        <g id="Desktop-HD" transform="translate(-188.000000, -2018.000000)" fill="#4B49FF" fill-rule="nonzero">
            <g id="true-logo-vector" transform="translate(188.000000, 2018.000000)">
                <path d="M49.2521941,32.6566995 C42.4479562,34.1929763 34.9425698,36.5627556 23.5034881,36.3685793 C17.2764313,36.2628765 13.9572882,34.3781118 13.5460589,30.7142857 C11.6222797,32.0850698 10.6401755,33.8966932 10.5997462,36.1491562 C10.5391022,39.5278511 12.951241,42.8322547 22.6449615,42.9968035 C32.338682,43.1613524 48.9758712,36.9174439 57.9941159,37.0705267 C63.6027739,37.1657325 65.7520714,38.7841396 64.4420077,41.9257478 C67.1809206,40.9488181 68.5708161,39.3216228 68.611694,37.0441617 C68.6358391,35.6989542 67.8645467,34.5495076 66.6525603,33.6456876 C64.4627411,33.4097505 62.3335008,32.6840757 60.581006,31.4874056 C60.1229618,31.4369238 59.6658036,31.4074233 59.2157955,31.3997845 C57.8916782,31.3773079 56.6005598,31.4473354 55.3196028,31.5858641 C54.1048299,32.4928813 52.7326879,32.9612523 51.2341728,32.9612523 C50.5081079,32.9612523 49.8462798,32.8553976 49.2521941,32.6566995 Z" id="swoosh"></path>
                <path d="M64.5543446,21.4602556 C63.5197074,24.1324433 62.6623779,27.9075385 65.0888965,29.3218843 C65.6773447,29.6649795 68.1307741,30.4587244 71.6247104,27.7458553 C76.0400206,24.3174777 79.9195633,15.5888557 76.6205873,11.8903871 C76.0620052,11.2641615 75.8195911,11.2181497 75.2913733,10.9974757 C77.0280954,10.9032927 78.9610227,11.2561883 80.4783109,12.7836307 C84.1159373,16.4458048 80.8516392,25.451245 74.7124657,30.1609768 C70.8903326,33.0931081 64.8169478,32.8365549 61.0513945,30.1916237 C58.4514447,28.3653568 58.0691411,25.5042532 58.1664152,23.4305692 C56.4434104,28.7907769 53.9939649,31.4708809 50.8180793,31.4708809 C46.0880386,31.4708809 46.1385963,25.7948532 46.9882619,24.6035687 C46.6183586,25.1289735 42.96906,31.7618674 38.4209549,31.7618674 C33.8728502,31.7618674 33.5163119,27.4521163 33.5163119,26.240507 C33.5163119,25.0288978 34.5789612,21.3347286 35.8313089,18.9986774 C36.6662072,17.4413098 37.6765934,15.5591686 38.8624676,13.3522537 C38.2173995,13.926528 37.5455097,14.2185772 36.8467981,14.2284014 C36.1463376,14.2382501 36.484909,13.3457786 37.1516057,12.8753724 C37.8183024,12.4049661 38.7661154,10.8371026 40.3812258,10.8371026 C42.2188691,10.8371026 43.8389371,12.5232986 43.8180998,13.806751 C43.7879506,15.6637357 42.532307,17.923551 41.2824423,20.6273628 C40.0325779,23.3311745 39.1235261,27.0215892 41.0834857,27.0215892 C43.0434451,27.0215892 46.112389,22.6030064 47.8379277,19.746897 C48.988287,17.842824 50.2065007,15.7809767 51.4925696,13.561355 C50.6671387,13.9727388 50.1184016,14.1784307 49.8463577,14.1784307 C49.4382924,14.1784307 49.5834886,13.8343956 49.9802125,13.3188803 C50.3769363,12.8033649 51.3610699,10.8578123 53.2250639,10.8578123 C55.0890579,10.8578123 57.0182748,11.8252965 57.0182748,13.806751 C57.0182748,16.2656267 55.8287589,17.8025264 54.2893255,20.3920637 C52.749892,22.9816011 51.6978167,26.4899002 53.3055835,26.4899002 C54.3012897,26.4899002 56.101683,24.175357 58.7067637,19.5462702 C61.5017668,13.493529 65.0777352,9.44977382 71.5045817,11.3219669 C78.4733731,13.3520509 72.6219114,25.8326281 67.6607125,25.4917753 C64.7370944,25.291003 64.3906815,23.1003338 64.5522552,21.4570378 L64.5543446,21.4602556 Z M65.0230944,20.3401741 L65.0225425,20.3478705 L65.0222051,20.3496211 C65.0772037,21.1055518 65.1861395,22.0805713 66.0198939,22.2536738 C67.5786632,22.5772514 69.0915548,19.7280909 69.8972795,18.1836225 C71.7258407,14.678337 70.9306518,10.8483111 65.8770336,18.6708161 C65.7379935,18.8860156 65.4005162,19.5013724 65.0230944,20.3401741 Z M11.2150536,9.54658134 C8.84345881,9.9435721 6.63820912,10.0816559 4.82850515,9.62994579 C1.09166042,8.69721285 -0.476188715,6.37934063 0.124957746,2.6763292 C0.950178271,3.70439266 2.04239139,4.3880563 3.4015971,4.72732005 C11.9358267,6.85750147 23.4098648,-1.4028842 29.8733838,0.210438732 C34.05728,1.25475774 34.3381387,4.29152837 34.1328331,5.17446005 C33.5052143,7.87358074 30.9597694,9.44123203 29.9970882,9.4214194 C29.6795567,9.4148844 29.4720745,9.27576128 29.3746415,9.00405006 C29.9965127,8.51130292 30.0933784,7.21081691 28.5199722,6.88058289 C25.85562,6.32137593 22.2757329,7.04155844 18.5570083,7.91984612 C16.0366583,11.8424964 13.8684485,16.1146037 12.0523789,20.7361681 C9.91727799,26.1696088 9.56596439,29.3659434 10.9984381,30.3251722 C10.3059102,31.7014642 9.04693069,32.3896104 7.22149962,32.3896104 C6.2912315,32.3896104 3.73920935,31.5197091 3.73920935,28.9110632 C3.73920935,26.302417 4.62023092,24.2836666 5.89706008,20.7361681 C6.62241407,18.7208694 8.39507857,14.9910071 11.2150536,9.54658134 Z M19.0045813,13.9420094 C18.4651293,14.3119224 18.0844284,14.4898723 17.8624786,14.4758591 C17.5758246,14.4775345 17.5540065,13.9701795 18.7828581,12.5737345 C19.7714957,11.4502641 19.9491888,10.8408979 21.6990689,10.8408979 C27.337475,10.8408979 22.3656972,16.9745146 22.426189,18.2960876 C24.1155078,16.8949734 27.0611864,10.8371026 30.2837904,10.8371026 C35.2092449,10.8371026 33.0665927,15.3128306 32.2024811,16.6236467 C31.3383694,17.9344628 29.0712272,21.8681619 30.0765989,21.8681619 C30.7148697,21.8681619 32.7803128,18.9092115 33.9692065,17.5040787 C34.3877582,17.0093998 34.9055789,16.9526806 34.6193278,17.5040787 C32.9911147,20.6404653 30.0071452,25.1569516 28.2394406,25.1569516 C27.6738765,25.1569516 25.3306718,25.0915108 25.3306718,22.0822078 C25.3306718,19.0729049 26.7403088,18.2049463 26.2420807,17.6541995 C25.7438527,17.1034527 23.6768486,18.5403324 21.6990689,22.0152179 C19.7212891,25.4901034 19.3065749,29.0030654 19.3464046,29.7298119 C19.3729577,30.2143095 19.7395274,30.5672438 20.4461137,30.7886149 C19.1994407,31.8283477 18.1331806,32.3385883 17.2473336,32.3193362 C15.918563,32.2904582 14.0864477,31.9905795 13.805254,28.9865989 C13.5525533,26.2870088 15.2856624,21.2721456 19.0045813,13.9420094 Z" id="white"></path>
            </g>
        </g>
    </g>
</svg>