<?xml version="1.0" encoding="UTF-8"?>
<svg width="53px" height="55px" viewBox="0 0 53 55" version="1.1" xmlns="http://www.w3.org/2000/svg" xmlns:xlink="http://www.w3.org/1999/xlink">
    <!-- Generator: Sketch 50.2 (55047) - http://www.bohemiancoding.com/sketch -->
    <title>vote (1)</title>
    <desc>Created with Sketch.</desc>
    <defs></defs>
    <g id="ICO-LandingPage" stroke="none" stroke-width="1" fill="none" fill-rule="evenodd">
        <g id="Desktop-HD" transform="translate(-466.000000, -2277.000000)" fill="#4B49FF" fill-rule="nonzero">
            <g id="Group-25" transform="translate(466.000000, 2263.000000)">
                <g id="vote-(1)" transform="translate(0.000000, 14.000000)">
                    <path d="M51.8437238,31.8665918 L43.517381,31.8665918 L43.517381,18.5846289 C43.517381,17.9913379 43.0388851,17.5104102 42.4488327,17.5104102 L34.2384274,17.5104102 L26.909254,10.1424512 C25.7442157,8.97123047 24.0734335,8.40082031 22.4400504,8.61630859 L18.0630625,9.19391602 C18.1546371,8.83770508 18.0628488,8.44368164 17.7853468,8.16470703 L15.35675,5.72322266 C15.3099476,5.64050781 15.2528871,5.56327148 15.1847137,5.49473633 L10.0319597,0.314638672 C9.61469153,-0.10484375 8.93808669,-0.10484375 8.52081855,0.314638672 L0.400705645,8.4778418 C-0.0165625,8.89732422 -0.0165625,9.57751953 0.400705645,9.99700195 L13.8443266,23.5120703 C14.890756,24.5640527 16.2818992,25.1499316 17.7615181,25.161748 L24.0582601,25.2127734 L24.0582601,31.8665918 L3.04140927,31.8665918 C2.45125,31.8665918 1.97286089,32.3475195 1.97286089,32.9408105 L1.97286089,53.9257813 C1.97286089,54.5190723 2.45125,55 3.04140927,55 L51.8437238,55 C52.4338831,55 52.9122722,54.5190723 52.9122722,53.9257813 L52.9122722,32.9408105 C52.9122722,32.3475195 52.4337762,31.8665918 51.8437238,31.8665918 Z M41.3801774,19.6593848 L41.3801774,38.5644531 L26.1953569,38.5644531 L26.1953569,25.1703418 C26.2208952,25.1659375 26.2458992,25.160459 26.2713306,25.155625 C26.2944113,25.1512207 26.3174919,25.1470313 26.3404657,25.1421973 C26.3798952,25.1338184 26.4188972,25.1244727 26.4578992,25.1149121 C26.4774536,25.1100781 26.4972218,25.1057813 26.5166694,25.1007324 C26.5687077,25.0870898 26.6202117,25.0722656 26.6713952,25.0564746 C26.677379,25.0546484 26.6834698,25.0531445 26.6894536,25.0512109 C26.746621,25.0332715 26.8031472,25.0138281 26.8591391,24.9933105 C26.8757016,24.9871875 26.8919435,24.9804199 26.908506,24.974082 C26.9476149,24.9591504 26.9865101,24.9440039 27.0249778,24.9278906 C27.0456008,24.9191895 27.0657964,24.9099512 27.0862056,24.9009277 C27.1200786,24.8859961 27.1537379,24.870957 27.1870766,24.8549512 C27.2086613,24.8446387 27.2299254,24.8338965 27.2512964,24.8231543 C27.2828185,24.8073633 27.3142339,24.7913574 27.3453286,24.774707 C27.3669133,24.7631055 27.3883911,24.7512891 27.4097621,24.7392578 C27.4401089,24.7222852 27.4701351,24.7048828 27.4999476,24.6870508 C27.520998,24.6744824 27.5419415,24.6619141 27.5626714,24.648916 C27.592377,24.6304395 27.6216552,24.6113184 27.6508266,24.5920898 C27.6708085,24.578877 27.6907903,24.5657715 27.7105585,24.5521289 C27.7404778,24.5315039 27.7698629,24.510127 27.7991411,24.48875 C27.8171996,24.4755371 27.8354718,24.4626465 27.8532097,24.4491113 C27.8860141,24.4241895 27.9180706,24.3985156 27.9500202,24.372627 C27.9634839,24.3616699 27.977375,24.3511426 27.9907319,24.3400781 C28.0357177,24.3025879 28.0798488,24.2642383 28.1230181,24.2248145 C28.1295363,24.2187988 28.1358407,24.2124609 28.1423589,24.2064453 C28.1787964,24.1727148 28.2146996,24.1385547 28.249748,24.1035352 C28.2641734,24.0891406 28.2780645,24.0741016 28.2922762,24.0594922 C28.3187762,24.0320996 28.3451694,24.004707 28.3709214,23.9765625 C28.3867359,23.9592676 28.4019093,23.9416504 28.4174032,23.9240332 C28.4406976,23.8976074 28.4638851,23.8709668 28.4864315,23.8438965 C28.5021391,23.8250977 28.5174194,23.806084 28.5326996,23.7869629 C28.5542843,23.7601074 28.5755484,23.7330371 28.5963851,23.7055371 C28.6113448,23.6858789 28.6260907,23.6660059 28.640623,23.6460254 C28.6609254,23.6182031 28.6808004,23.5900586 28.7003548,23.5615918 C28.714246,23.5413965 28.7281371,23.5212012 28.7417077,23.5006836 C28.7611552,23.4713574 28.7799617,23.4416016 28.7985544,23.4116309 C28.8111633,23.3914355 28.823879,23.3713477 28.8360605,23.3509375 C28.8552944,23.3188184 28.8736734,23.2860547 28.8919456,23.2533984 C28.9024173,23.2345996 28.9133165,23.2160156 28.9234677,23.1971094 C28.9451593,23.1567188 28.9657823,23.1155762 28.9860847,23.0743262 C28.9918548,23.0625098 28.9981593,23.0510156 29.0038226,23.0390918 C29.0293609,22.9858105 29.0537238,22.9317773 29.0768044,22.8770996 C29.0831089,22.862168 29.0887722,22.8468066 29.0949698,22.8316602 C29.1113185,22.7915918 29.1274536,22.751416 29.1425202,22.7107031 C29.1502137,22.6898633 29.1571593,22.6688086 29.1645323,22.6477539 C29.1769274,22.6121973 29.1892157,22.5766406 29.2006492,22.5406543 C29.2080222,22.5174512 29.214754,22.4940332 29.2216996,22.4706152 C29.2318508,22.4362402 29.2417883,22.4016504 29.2510847,22.3668457 C29.2576028,22.3424609 29.2636935,22.3178613 29.2696774,22.2932617 C29.278119,22.2587793 29.2861331,22.2242969 29.2936129,22.1894922 C29.2990625,22.1643555 29.3041915,22.1392187 29.3091069,22.1139746 C29.3159456,22.0787402 29.3221431,22.043291 29.3280202,22.0077344 C29.3321875,21.9827051 29.3363548,21.9577832 29.3399879,21.9326465 C29.3453306,21.8955859 29.3498185,21.8582031 29.3541996,21.8208203 C29.3569778,21.7967578 29.3600766,21.7729102 29.3624274,21.7487402 C29.366381,21.7073828 29.3692661,21.6657031 29.3719375,21.623916 C29.3732198,21.6035059 29.3751431,21.5832031 29.3761048,21.5626855 C29.3790968,21.5002734 29.3808065,21.4375391 29.3808065,21.374375 L29.3808065,21.3616992 C29.3808065,21.289834 29.3784556,21.2186133 29.3746089,21.1478223 C29.3733266,21.1247266 29.3710827,21.1019531 29.369373,21.0790723 C29.3659536,21.031377 29.3621069,20.9836816 29.356871,20.9365234 C29.3539859,20.9098828 29.350246,20.8833496 29.3468266,20.8569238 C29.3411633,20.8136328 29.3350726,20.7704492 29.3279133,20.7275879 C29.3234254,20.7004102 29.3185101,20.6733398 29.3134879,20.646377 C29.3055806,20.6042676 29.2969254,20.5624805 29.2877359,20.5209082 C29.2818589,20.4944824 29.2759819,20.4681641 29.2695706,20.4419531 C29.2590988,20.3990918 29.2475585,20.3567676 29.2356976,20.3144434 C29.2289657,20.2905957 29.2225544,20.2665332 29.2153952,20.2429004 C29.200756,20.194668 29.1848347,20.1469727 29.168379,20.0994922 C29.162502,20.082627 29.157373,20.0654395 29.1512823,20.0486816 C29.1280948,19.9846582 29.1034113,19.9214941 29.0770181,19.859082 C29.0718891,19.8468359 29.0660121,19.8350195 29.0606694,19.8228809 C29.0389778,19.7731445 29.0166452,19.7237305 28.9929234,19.6750684 C28.9904657,19.6699121 28.9883286,19.664541 28.9857641,19.6593848 L41.3801774,19.6593848 Z M2.66752419,9.23742188 L9.27638911,2.59337891 L12.9181089,6.25431641 L6.3091371,12.8984668 L2.66752419,9.23742188 Z M7.82027823,14.4177344 L14.4016815,7.80129883 L15.5186351,8.92428711 L8.93723185,15.5406152 L7.82027823,14.4177344 Z M17.7787218,23.0133105 C16.8634032,23.0061133 16.0029012,22.6436719 15.3555746,21.9928027 L10.4484798,17.059668 L12.1272762,15.3719629 L15.8233851,11.6562402 L22.7183004,10.746377 C23.697625,10.6171484 24.6996028,10.9591797 25.3982198,11.6615039 L31.2161452,17.5101953 L25.550381,17.5101953 L21.3912702,17.5101953 C20.8011109,17.5101953 20.3227218,17.991123 20.3227218,18.5844141 C20.3227218,19.1777051 20.8011109,19.6586328 21.3912702,19.6586328 L25.5502742,19.6586328 C26.4840786,19.6586328 27.2438165,20.4224023 27.2438165,21.3611621 L27.2438165,21.3738379 C27.2438165,21.667207 27.1696593,21.9434961 27.0394032,22.1846582 C26.7528185,22.7153223 26.1950363,23.0763672 25.5589294,23.0763672 L17.7787218,23.0133105 Z M4.10995766,34.0150293 L24.0582601,34.0150293 L24.0582601,38.5644531 L14.9211028,38.5644531 C14.3309435,38.5644531 13.8525544,39.0453809 13.8525544,39.6386719 C13.8525544,40.2319629 14.3309435,40.7128906 14.9211028,40.7128906 L25.1268085,40.7128906 L42.4487258,40.7128906 L43.7068347,40.7128906 C44.2968871,40.7128906 44.7753831,40.2319629 44.7753831,39.6386719 C44.7753831,39.0453809 44.2968871,38.5644531 43.7068347,38.5644531 L43.5172742,38.5644531 L43.5172742,34.0150293 L50.7750685,34.0150293 L50.7750685,46.7415137 L4.10995766,46.7415137 L4.10995766,34.0150293 Z M50.7751754,52.8515625 L4.10995766,52.8515625 L4.10995766,48.8899512 L50.7751754,48.8899512 L50.7751754,52.8515625 Z" id="Shape"></path>
                    <path d="M39.1196633,23.5766309 C38.6255665,23.2516797 37.963494,23.3910059 37.6403649,23.8872949 L33.5429093,30.1824316 L30.3788306,27.593457 C29.9212782,27.2190918 29.2480927,27.2883789 28.8755968,27.7484668 C28.5031008,28.2085547 28.572129,28.8852051 29.0297883,29.2596777 L33.1133528,32.6011426 C33.3051573,32.7580859 33.5437641,32.8421973 33.7879274,32.8421973 C33.8425302,32.8421973 33.8972399,32.8380078 33.9519496,32.8294141 C34.2510363,32.7826855 34.51625,32.6107031 34.6820887,32.3561133 L39.4287944,25.0636719 C39.7518165,24.567168 39.6134395,23.9014746 39.1196633,23.5766309 Z" id="Shape"></path>
                    <path d="M18.2208871,18.3745117 C18.206996,18.3057617 18.1866935,18.2391602 18.1599798,18.1736328 C18.1332661,18.1091797 18.1001411,18.046875 18.0616734,17.9888672 C18.0221371,17.9297852 17.9783266,17.875 17.9281048,17.8245117 C17.8789516,17.7750977 17.8244556,17.7310547 17.7656855,17.6913086 C17.7079839,17.6526367 17.6460081,17.6193359 17.5818952,17.5924805 C17.5167137,17.565625 17.4504637,17.5452148 17.3820766,17.53125 C17.2442339,17.5033203 17.1021169,17.5033203 16.9642742,17.53125 C16.8958871,17.5452148 16.8285685,17.565625 16.7644556,17.5924805 C16.6992742,17.6193359 16.6372984,17.6526367 16.5795968,17.6913086 C16.5208266,17.7310547 16.4663306,17.7750977 16.4171774,17.8245117 C16.3680242,17.875 16.3231452,17.9297852 16.2846774,17.9888672 C16.2462097,18.046875 16.2130847,18.1091797 16.186371,18.1736328 C16.1596573,18.2391602 16.1393548,18.3057617 16.1254637,18.3745117 C16.1115726,18.4443359 16.1040927,18.5141602 16.1040927,18.5850586 C16.1040927,18.6548828 16.1115726,18.7257812 16.1254637,18.7945312 C16.1393548,18.8632812 16.1596573,18.930957 16.186371,18.9954102 C16.2130847,19.0598633 16.2462097,19.122168 16.2846774,19.18125 C16.3231452,19.2392578 16.3680242,19.2950098 16.4171774,19.3445312 C16.4663306,19.3939453 16.5208266,19.4390625 16.5795968,19.4777344 C16.6372984,19.5164062 16.6992742,19.549707 16.7644556,19.5765625 C16.8285685,19.603418 16.8958871,19.6238281 16.9642742,19.637793 C17.0326613,19.6517578 17.1031855,19.6592773 17.1726411,19.6592773 C17.2431653,19.6592773 17.312621,19.6517578 17.3820766,19.637793 C17.4504637,19.6238281 17.5167137,19.603418 17.5818952,19.5765625 C17.6460081,19.549707 17.7079839,19.5164062 17.7656855,19.4777344 C17.8244556,19.4390625 17.8789516,19.3939453 17.9281048,19.3445312 C17.9783266,19.2950098 18.0221371,19.2392578 18.0616734,19.18125 C18.1001411,19.122168 18.1332661,19.0598633 18.1599798,18.9954102 C18.1866935,18.930957 18.206996,18.8632812 18.2208871,18.7945312 C18.2347782,18.7257812 18.2411895,18.6548828 18.2411895,18.5850586 C18.2411895,18.5141602 18.2347782,18.4443359 18.2208871,18.3745117 Z" id="Shape"></path>
                    <path d="M12.2252621,39.4291992 C12.2124395,39.3604492 12.1910685,39.2927734 12.1643548,39.2283203 C12.1376411,39.162793 12.1045161,39.1004883 12.0660484,39.0424805 C12.0275806,38.9833984 11.9827016,38.9286133 11.9335484,38.8791992 C11.8843952,38.8297852 11.8298992,38.784668 11.771129,38.7459961 C11.7134274,38.7073242 11.6514516,38.6740234 11.5862702,38.647168 C11.5221573,38.6203125 11.4548387,38.5999023 11.3864516,38.5859375 C11.2486089,38.5580078 11.1075605,38.5580078 10.9697177,38.5859375 C10.9013306,38.5999023 10.8340121,38.6203125 10.7698992,38.647168 C10.7047177,38.6740234 10.6427419,38.7073242 10.5850403,38.7459961 C10.5262702,38.784668 10.4717742,38.8297852 10.422621,38.8791992 C10.3734677,38.9286133 10.3285887,38.9833984 10.290121,39.0424805 C10.2516532,39.1004883 10.2185282,39.162793 10.1918145,39.2283203 C10.1651008,39.2927734 10.1447984,39.3604492 10.1309073,39.4291992 C10.1170161,39.4979492 10.1095363,39.5688477 10.1095363,39.6386719 C10.1095363,39.7084961 10.1170161,39.7793945 10.1309073,39.8481445 C10.1447984,39.9168945 10.1651008,39.9845703 10.1918145,40.0500977 C10.2185282,40.1145508 10.2516532,40.1768555 10.290121,40.2348633 C10.3285887,40.2939453 10.3734677,40.3487305 10.422621,40.3981445 C10.4717742,40.4475586 10.5262702,40.4926758 10.5850403,40.5313477 C10.6426351,40.5700195 10.7047177,40.6033203 10.7698992,40.6301758 C10.8340121,40.6570313 10.9013306,40.6785156 10.9697177,40.6914063 C11.0381048,40.7053711 11.108629,40.7128906 11.1780847,40.7128906 C11.4591129,40.7128906 11.7347984,40.5979492 11.9335484,40.3981445 C11.9827016,40.3487305 12.0275806,40.2939453 12.0660484,40.2348633 C12.1045161,40.1768555 12.1376411,40.1145508 12.1643548,40.0500977 C12.1910685,39.9845703 12.2124395,39.9168945 12.2252621,39.8481445 C12.2391532,39.7793945 12.2466331,39.7084961 12.2466331,39.6386719 C12.2466331,39.5688477 12.2391532,39.4979492 12.2252621,39.4291992 Z" id="Shape"></path>
                </g>
            </g>
        </g>
    </g>
</svg>