<?xml version="1.0" encoding="UTF-8"?>
<svg width="54px" height="58px" viewBox="0 0 54 58" version="1.1" xmlns="http://www.w3.org/2000/svg" xmlns:xlink="http://www.w3.org/1999/xlink">
    <!-- Generator: Sketch 50.2 (55047) - http://www.bohemiancoding.com/sketch -->
    <title>vip</title>
    <desc>Created with Sketch.</desc>
    <defs></defs>
    <g id="ICO-LandingPage" stroke="none" stroke-width="1" fill="none" fill-rule="evenodd">
        <g id="Desktop-HD" transform="translate(-204.000000, -2275.000000)" fill="#4B49FF" fill-rule="nonzero">
            <g id="Group-24" transform="translate(159.000000, 2266.000000)">
                <g id="vip" transform="translate(45.000000, 9.000000)">
                    <path d="M53.9245356,28.943809 C53.2566527,19.6158713 47.8116904,11.2984678 39.5331967,6.96067836 L39.5331967,2.89434698 C39.5315021,1.296577 38.2376485,0.00169590643 36.6411464,0 L13.5047448,0 C11.9082427,0.00169590643 10.6143891,1.296577 10.6126946,2.89434698 L10.6126946,9.42935283 C1.41608787,16.4582066 -2.27737657,28.5738752 1.43258159,39.5434503 C5.14242678,50.5130253 15.4293138,57.8930448 27.0010167,57.8869396 L27.123251,57.8869396 L27.1263013,57.8873918 L27.1291255,57.8869396 L27.131046,57.8869396 C32.7269372,57.8749552 38.1783389,56.1074815 42.7181799,52.8331384 C42.7512803,52.8096218 42.7827992,52.7838441 42.8122845,52.7559181 C50.3881004,47.2810799 54.5924184,38.2717466 53.9245356,28.943809 Z M3.31422176,39.08646 C-0.0398786611,29.3883626 2.85171967,18.623653 10.6126946,11.9160039 L10.6126946,41.4856023 C10.6143891,43.0833723 11.9082427,44.3782534 13.5047448,44.3799493 L25.5256192,44.3799493 C24.9026987,48.2143938 25.0074226,52.1320507 25.8341423,55.9277154 C15.590523,55.4569318 6.66832218,48.7845575 3.31422176,39.08646 Z M26.0755607,37.6265107 L24.1089665,37.6265107 L24.1089665,35.6969084 C24.1090795,35.4410526 24.0075188,35.1955984 23.8266527,35.0145887 C23.6458996,34.833692 23.4006402,34.7320507 23.1448745,34.7320507 C22.8892218,34.7319376 22.6439623,34.8335789 22.4630962,35.0145887 C22.2823431,35.1954854 22.1807824,35.4409396 22.1807824,35.6969084 L22.1807824,37.6265107 L20.2527113,37.6265107 L20.2527113,36.6617661 C20.2527113,36.1289123 19.8211632,35.6970214 19.2887322,35.6970214 C18.7563013,35.6970214 18.3247531,36.1289123 18.3247531,36.6617661 L18.3247531,37.6265107 L16.396682,37.6265107 L16.396682,32.8025614 L26.0754477,32.8025614 L26.0754477,37.6265107 L26.0755607,37.6265107 Z M26.0755607,30.8730721 L16.396795,30.8730721 C15.3324979,30.8743158 14.4699665,31.7375322 14.4687238,32.8026745 L14.4687238,37.6265107 C14.4699665,38.691653 15.3324979,39.5548694 16.396795,39.5561131 L26.0755607,39.5561131 L26.0755607,41.3711852 C26.0336485,41.5494815 25.9490335,41.9303821 25.8489414,42.45046 L13.5047448,42.45046 C12.9725397,42.4498947 12.5412176,42.0183431 12.5407657,41.4857154 L12.5407657,2.89434698 C12.5413305,2.3617193 12.9725397,1.93005458 13.5047448,1.92960234 L36.6411464,1.92960234 C37.1733515,1.93016764 37.6046736,2.3617193 37.6051255,2.89434698 L37.6051255,40.7691384 C37.5257071,41.4946472 37.0327029,42.1082261 36.3417741,42.3415828 C36.2941004,42.3524366 36.2472176,42.3665692 36.2014644,42.3839805 C36.1892636,42.3882768 36.0884937,42.4065926 36.0762929,42.4113411 C35.948636,42.4368928 35.8187197,42.4500078 35.6884644,42.45046 C35.1871004,42.4414152 34.7086695,42.2384717 34.3534895,41.8842534 C33.9904017,41.5238168 33.7866025,41.0327953 33.7876192,40.5209708 L33.7876192,30.8731852 C33.7876192,28.741883 32.0612008,27.0140936 29.93159,27.0140936 C27.8019791,27.0140936 26.0755607,28.7416569 26.0755607,30.8730721 Z M41.3281883,51.446 C37.3622385,54.226269 32.669887,55.7840156 27.8298828,55.927037 C26.5529749,51.4874932 27.1257364,46.3369123 27.6045063,43.5762027 C27.7965565,42.4375712 27.9735816,41.7267602 27.9744854,41.7196374 C27.9940293,41.6430955 28.0038577,41.5644055 28.0036318,41.4854893 L28.0036318,30.872846 C28.0036318,29.8071384 28.866841,28.9432437 29.9317029,28.9432437 C30.9965649,28.9432437 31.8597741,29.8071384 31.8597741,30.872846 L31.8597741,31.8375906 L31.8597741,40.5206316 C31.8574017,41.5446199 32.2645481,42.5270019 32.9903849,43.2486667 C33.7058285,43.9597037 34.6690167,44.3651384 35.6772803,44.3797232 C35.913954,44.3817583 36.1501757,44.3600507 36.3824435,44.3147135 C36.5287406,44.2966238 36.6726653,44.2630448 36.8117322,44.2144288 C36.8249498,44.2111501 36.8380544,44.2078713 36.851272,44.203575 C38.4756778,43.7180936 39.5844854,42.2172164 39.5719456,40.5206316 L39.5719456,28.332039 C41.3097741,31.1929201 43.7914017,35.8609591 44.3129874,39.9192632 C44.4117238,40.7704951 44.2968326,41.6330331 43.9788201,42.4287524 L41.3281883,51.446 Z M43.9575816,49.3316569 L45.8021674,43.0482105 C46.2198201,41.9759454 46.3654393,40.8167368 46.2258075,39.6742612 C45.4099331,33.3323626 40.4476946,26.0247018 39.5331967,24.7224717 L39.5331967,9.15359844 C47.3090837,13.6114581 52.0942971,21.9046667 52.0653766,30.8729591 C52.056113,37.888924 49.1165021,44.581423 43.9575816,49.3316569 Z" id="Shape"></path>
                    <path d="M25.0729456,3.85909162 C23.4757657,3.85909162 22.1808954,5.15487719 22.1808954,6.7534386 C22.18259,8.35120858 23.4764435,9.64608967 25.0729456,9.64778558 C26.6701255,9.64778558 27.9649958,8.352 27.9649958,6.7534386 C27.9649958,5.15487719 26.6701255,3.85909162 25.0729456,3.85909162 Z M25.0729456,7.7182963 C24.5405146,7.7182963 24.1089665,7.28640546 24.1089665,6.75355166 C24.1095314,6.22092398 24.5407406,5.78925926 25.0729456,5.78880702 C25.6053766,5.78880702 26.0369247,6.22069786 26.0369247,6.75355166 C26.0369247,7.28640546 25.6053766,7.7182963 25.0729456,7.7182963 Z" id="Shape"></path>
                    <path d="M22.0227364,14.479423 C21.6816778,14.5369708 21.3975565,14.7729279 21.2781464,15.0977505 L19.2889582,20.4068421 L17.2997699,15.0977505 C17.1803598,14.7729279 16.8962385,14.5369708 16.5551799,14.479423 C16.2141213,14.4218752 15.868431,14.5515556 15.6491548,14.8192827 C15.4299916,15.0870097 15.370795,15.4517427 15.494159,15.7750955 L18.3862092,23.4933918 C18.5274226,23.8699961 18.8871213,24.1194074 19.2889582,24.1194074 C19.690795,24.1194074 20.0506067,23.8699961 20.1917071,23.4933918 L23.0837573,15.7750955 C23.2071213,15.4517427 23.1480377,15.0870097 22.9287615,14.8192827 C22.7094854,14.5516686 22.363795,14.4218752 22.0227364,14.479423 Z" id="Shape"></path>
                    <path d="M26.0369247,14.4717349 C25.781272,14.4716218 25.5360126,14.5732632 25.3551464,14.7542729 C25.1743933,14.9351696 25.0728326,15.1806238 25.0728326,15.4365926 L25.0728326,23.1547758 C25.0728326,23.6876296 25.5043808,24.1195205 26.0368117,24.1195205 C26.5692427,24.1195205 27.0007908,23.6875166 27.0007908,23.1547758 L27.0007908,15.4364795 C27.0009038,15.1806238 26.8993431,14.9351696 26.718477,14.7541598 C26.5378368,14.5732632 26.2926904,14.4716218 26.0369247,14.4717349 Z" id="Shape"></path>
                    <path d="M29.8930669,24.1195205 C30.1487197,24.1196335 30.3939791,24.0179922 30.5748452,23.8369825 C30.7555983,23.6560858 30.857159,23.4106316 30.857159,23.1546628 L30.857159,20.2603158 L31.8211381,20.2603158 C33.418318,20.2603158 34.7131883,18.9645302 34.7131883,17.3659688 C34.7131883,15.7674074 33.418318,14.4716218 31.8211381,14.4716218 L29.8930669,14.4716218 C29.6374142,14.4715088 29.3921548,14.5731501 29.2112887,14.7541598 C29.0304226,14.9351696 28.9289749,15.1805107 28.9289749,15.4364795 L28.9289749,23.1547758 C28.9288619,23.4106316 29.0304226,23.6560858 29.2112887,23.8370955 C29.3920418,24.0179922 29.6373013,24.1196335 29.8930669,24.1195205 Z M30.857046,16.4013372 L31.8210251,16.4013372 C32.3534561,16.4013372 32.7850042,16.8333411 32.7850042,17.3660819 C32.7850042,17.8989357 32.3534561,18.3308265 31.8210251,18.3308265 L30.857046,18.3308265 L30.857046,16.4013372 Z" id="Shape"></path>
                </g>
            </g>
        </g>
    </g>
</svg>