<?xml version="1.0" encoding="UTF-8"?>
<svg width="57px" height="57px" viewBox="0 0 57 57" version="1.1" xmlns="http://www.w3.org/2000/svg" xmlns:xlink="http://www.w3.org/1999/xlink">
    <!-- Generator: Sketch 50.2 (55047) - http://www.bohemiancoding.com/sketch -->
    <title>value</title>
    <desc>Created with Sketch.</desc>
    <defs></defs>
    <g id="ICO-LandingPage" stroke="none" stroke-width="1" fill="none" fill-rule="evenodd">
        <g id="Desktop-HD" transform="translate(-745.000000, -1994.000000)" fill="#4B49FF" fill-rule="nonzero">
            <g id="Group-14" transform="translate(745.000000, 1985.000000)">
                <g id="value" transform="translate(0.000000, 9.000000)">
                    <path d="M56.8814969,30.4002375 L56.8814969,26.6002375 C56.8814969,26.0756 56.4570187,25.6502375 55.9334719,25.6502375 L41.7130977,25.6502375 L41.7130977,6.6502375 C41.7130977,6.1256 41.2886195,5.7002375 40.7650728,5.7002375 L33.0756424,5.7002375 C34.3554761,4.45265 35.0773971,2.73944375 35.0769231,0.9502375 C35.0769231,0.4256 34.6524449,0.0002375 34.1288981,0.0002375 C31.7959272,0.00391875 29.6362079,1.235 28.4407484,3.2425875 C27.245289,1.235 25.0855696,0.00391875 22.7525988,0.0002375 C22.229052,0.0002375 21.8045738,0.4256 21.8045738,0.9502375 C21.8040998,2.73944375 22.5260208,4.45265 23.8058545,5.7002375 L16.1164241,5.7002375 C15.5928773,5.7002375 15.1683992,6.1256 15.1683992,6.6502375 L15.1683992,25.6502375 L0.948024948,25.6502375 C0.42447817,25.6502375 0,26.0756 0,26.6002375 L0,30.4002375 C0,30.924875 0.42447817,31.3502375 0.948024948,31.3502375 L32.0792682,31.3502375 L26.3911185,33.2502375 L12.3243243,33.2502375 C12.0728607,33.2502375 11.8318254,33.3504625 11.6540707,33.5285875 L7.58419958,37.6069375 L6.35840333,36.3785875 C5.98819958,36.0077313 5.38809979,36.0077313 5.01789605,36.3785875 L0.27777131,41.1285875 C-0.0923139293,41.4995625 -0.0923139293,42.1009125 0.27777131,42.4718875 L14.4981455,56.7218875 C14.8683493,57.0927438 15.4684491,57.0927438 15.8386528,56.7218875 L20.5787775,51.9718875 C20.9488628,51.6009125 20.9488628,50.9995625 20.5787775,50.6285875 L20.4223534,50.4718375 L25.9000416,46.5502375 L44.5571726,46.5502375 C44.7944158,46.5502375 45.0231268,46.4610563 45.1980374,46.3003875 L55.5068607,36.8317375 C57.0613846,35.4059063 57.3321642,33.0512125 56.1420374,31.3084375 C56.5701892,31.2164063 56.8774678,30.8390188 56.8814969,30.4002375 Z M33.059526,2.0218375 C32.6474906,3.78729375 31.2719064,5.16574375 29.5101206,5.5786375 C29.9221559,3.81318125 31.2977401,2.43473125 33.059526,2.0218375 Z M27.3713763,5.5786375 C25.6095904,5.16574375 24.2340062,3.78729375 23.8219709,2.0218375 C25.5837568,2.43473125 26.959341,3.81318125 27.3713763,5.5786375 Z M17.0644491,7.6002375 L39.8170478,7.6002375 L39.8170478,25.6502375 L29.6257796,25.6502375 L37.7313929,14.8202375 C37.9841601,14.4825125 37.9841601,14.0179625 37.7313929,13.6802375 L34.8873181,9.8802375 C34.7082599,9.641075 34.427289,9.5002375 34.1288981,9.5002375 L22.7525988,9.5002375 C22.4542079,9.5002375 22.173237,9.641075 21.9941788,9.8802375 L19.150104,13.6802375 C18.8973368,14.0179625 18.8973368,14.4825125 19.150104,14.8202375 L27.2557173,25.6502375 L17.0644491,25.6502375 L17.0644491,7.6002375 Z M23.9850312,15.2002375 L26.0375052,20.8555875 L21.8045738,15.2002375 L23.9850312,15.2002375 Z M21.8045738,13.3002375 L23.2266112,11.4002375 L26.1522162,11.4002375 L24.2561663,13.3002375 L21.8045738,13.3002375 Z M26.0014802,15.2002375 L30.8800166,15.2002375 L28.4407484,21.9205375 L26.0014802,15.2002375 Z M26.9371809,13.3002375 L28.4407484,11.7935375 L29.944316,13.3002375 L26.9371809,13.3002375 Z M32.6253306,13.3002375 L30.7292807,11.4002375 L33.6548857,11.4002375 L35.0769231,13.3002375 L32.6253306,13.3002375 Z M35.0769231,15.2002375 L30.8439917,20.8555875 L32.8964657,15.2002375 L35.0769231,15.2002375 Z M1.8960499,29.4502375 L1.8960499,27.5502375 L54.985447,27.5502375 L54.985447,29.4502375 L1.8960499,29.4502375 Z M40.5194158,31.8960125 C40.4182141,31.7044688 40.300896,31.5218313 40.1687651,31.3502375 L48.7000416,31.3502375 L42.3008732,37.0502375 L38.9363326,37.0502375 C40.793869,36.0649688 41.5026362,33.7573 40.5194158,31.8960125 Z M15.1683992,54.7069375 L2.28853222,41.8002375 L5.68814969,38.3935375 L18.5680166,51.3002375 L15.1683992,54.7069375 Z M54.227027,35.4351188 L44.1883909,44.6501188 L25.5966736,44.6501188 C25.3991289,44.6501188 25.2066798,44.7118688 25.0458711,44.8268188 L19.0628857,49.1094188 L8.92470686,38.9501188 L12.7168067,35.1501188 L26.5446985,35.1501188 C26.6464927,35.1502375 26.7476944,35.13385 26.8442744,35.1016688 L36.5425696,31.8621688 C37.5452245,31.5250375 38.6308316,32.0663 38.967262,33.0710438 C39.3036923,34.0757875 38.7635551,35.1636563 37.7609002,35.5007875 C37.7248753,35.5129 37.6884948,35.5239438 37.6517588,35.5339188 L32.1058129,37.0501188 L29.3887734,37.0501188 L29.3887734,38.9501188 L42.6611227,38.9501188 C42.8931518,38.9502375 43.1171227,38.864975 43.2906112,38.7107188 L50.8890312,31.9429187 C51.3175385,31.5609 51.871185,31.3498812 52.4447401,31.3501187 L52.6409813,31.3501187 C53.9352723,31.3454875 54.9882911,32.3931 54.9929127,33.6899687 C54.9952827,34.3541375 54.7170374,34.9881438 54.227027,35.4351188 Z" id="Shape"></path>
                    <rect id="Rectangle-path" transform="translate(6.162854, 42.276070) rotate(-45.000000) translate(-6.162854, -42.276070) " x="5.2148386" y="40.2606648" width="1.89603171" height="4.03081134"></rect>
                    <rect id="Rectangle-path" x="44.5571726" y="3.8002375" width="1.8960499" height="1.9"></rect>
                    <rect id="Rectangle-path" x="46.4532225" y="1.9002375" width="1.8960499" height="1.9"></rect>
                    <rect id="Rectangle-path" x="48.3492723" y="3.8002375" width="1.8960499" height="1.9"></rect>
                    <rect id="Rectangle-path" x="46.4532225" y="5.7002375" width="1.8960499" height="1.9"></rect>
                    <rect id="Rectangle-path" x="54.985447" y="0.9502375" width="1.8960499" height="1.9"></rect>
                    <rect id="Rectangle-path" x="47.4012474" y="11.4002375" width="1.8960499" height="1.9"></rect>
                    <rect id="Rectangle-path" x="8.53222453" y="10.4502375" width="1.8960499" height="1.9"></rect>
                    <rect id="Rectangle-path" x="8.53222453" y="14.2502375" width="1.8960499" height="1.9"></rect>
                    <rect id="Rectangle-path" x="10.4282744" y="12.3502375" width="1.8960499" height="1.9"></rect>
                    <rect id="Rectangle-path" x="6.63617464" y="12.3502375" width="1.8960499" height="1.9"></rect>
                    <rect id="Rectangle-path" x="0" y="5.7002375" width="1.8960499" height="1.9"></rect>
                    <rect id="Rectangle-path" x="8.53222453" y="0.9502375" width="1.8960499" height="1.9"></rect>
                </g>
            </g>
        </g>
    </g>
</svg>