<?xml version="1.0" encoding="UTF-8"?>
<svg width="54px" height="54px" viewBox="0 0 54 54" version="1.1" xmlns="http://www.w3.org/2000/svg" xmlns:xlink="http://www.w3.org/1999/xlink">
    <!-- Generator: Sketch 50.2 (55047) - http://www.bohemiancoding.com/sketch -->
    <title>digital-marketing</title>
    <desc>Created with Sketch.</desc>
    <defs></defs>
    <g id="ICO-LandingPage" stroke="none" stroke-width="1" fill="none" fill-rule="evenodd">
        <g id="Desktop-HD" transform="translate(-754.000000, -2276.000000)" fill="#4B49FF" fill-rule="nonzero">
            <g id="Group-23" transform="translate(754.000000, 2276.000000)">
                <g id="digital-marketing">
                    <path d="M20.8790156,3.37932422 L13.2866367,3.37932422 C12.7043438,3.37932422 12.2321602,3.85140234 12.2321602,4.43380078 C12.2321602,5.01619922 12.7043438,5.48827734 13.2866367,5.48827734 L20.8790156,5.48827734 C21.4613086,5.48827734 21.9334922,5.01619922 21.9334922,4.43380078 C21.9334922,3.85140234 21.4613086,3.37932422 20.8790156,3.37932422 Z" id="Shape"></path>
                    <path d="M17.8282266,48.1626211 C17.6321602,47.9663438 17.3601563,47.8535977 17.0827734,47.8535977 C16.8053906,47.8535977 16.5333867,47.9664492 16.3372148,48.1626211 C16.141043,48.358793 16.0282969,48.6307969 16.0282969,48.9081797 C16.0282969,49.1855625 16.141043,49.4575664 16.3372148,49.6537383 C16.5333867,49.8499102 16.8053906,49.9626563 17.0827734,49.9626563 C17.3601563,49.9626563 17.6321602,49.8498047 17.8282266,49.6537383 C18.0243984,49.4575664 18.13725,49.1855625 18.13725,48.9081797 C18.13725,48.6297422 18.0245039,48.3586875 17.8282266,48.1626211 Z" id="Shape"></path>
                    <path d="M47.211293,33.5247188 L43.331625,26.8049883 C44.9224102,25.3310625 45.3468164,22.8988477 44.217668,20.9431406 C43.5828516,19.8437344 42.5581172,19.0572539 41.3317266,18.7287188 C40.4528555,18.4931016 39.5458242,18.5145117 38.6975391,18.7786055 L34.8186094,12.0601406 C34.6434258,11.7568125 34.3290234,11.5601133 33.9795,11.5355391 C33.6297656,11.510543 33.2911055,11.6615742 33.0752109,11.9372695 L20.9981953,27.3597539 L15.9297891,30.2859844 C13.037625,31.9556602 12.0432656,35.6671055 13.7130469,38.5592695 C14.5219922,39.9603164 15.8279062,40.9624805 17.3906367,41.3810859 C17.9123906,41.5209375 18.4418438,41.590125 18.9679219,41.590125 C20.0173359,41.590125 21.0530391,41.314957 21.986332,40.7760117 L22.5899297,40.427543 L24.6951914,44.0739141 L2.10895313,44.0739141 L2.10895313,8.86264453 L32.0565937,8.86264453 L32.0565937,9.17894531 C32.0565937,9.76134375 32.5287773,10.2334219 33.1110703,10.2334219 C33.6933633,10.2334219 34.1655469,9.76134375 34.1655469,9.17894531 L34.1655469,4.14492187 C34.1655469,1.86215625 32.3083477,0.0048515625 30.0254766,0.0048515625 L4.14007031,0.0048515625 C1.85719922,0.0048515625 0,1.86205078 0,4.14492187 L0,49.8550781 C0,52.1378438 1.85719922,53.9951484 4.14007031,53.9951484 L30.0256875,53.9951484 C32.3084531,53.9951484 34.1657578,52.1379492 34.1657578,49.8550781 L34.1657578,36.8415 L46.4465391,35.0958867 C46.7933203,35.0466328 47.0930625,34.828418 47.2463086,34.5133828 C47.3994492,34.1985586 47.3864766,33.8280469 47.211293,33.5247188 Z M2.10895312,4.14492187 C2.10895312,3.02494922 3.02009766,2.11391016 4.13996484,2.11391016 L30.025582,2.11391016 C31.1454492,2.11391016 32.0565937,3.02494922 32.0565937,4.14492187 L32.0565937,6.75358594 L2.10895312,6.75358594 L2.10895312,4.14492187 Z M40.7859258,20.7658477 C41.4680977,20.948625 42.0381563,21.3861094 42.3912656,21.9977227 C42.9327422,22.9356563 42.8319141,24.0708164 42.2267344,24.8914688 L39.8022188,20.6920195 C40.1275898,20.655 40.4601328,20.6785195 40.7859258,20.7658477 Z M20.9318555,38.9496094 C20.018707,39.4768477 18.9546328,39.6168047 17.9364375,39.343957 C16.9180312,39.0710039 16.066793,38.4179414 15.5395547,37.5046875 C14.4513281,35.6196445 15.0994336,33.2006133 16.9843711,32.1122813 L21.3166055,29.6110898 L25.263668,36.4485234 L20.9318555,38.9496094 Z M24.4164375,39.3730664 L26.3181445,38.2751367 L28.8094219,42.5899687 L26.9077148,43.6878984 L24.4164375,39.3730664 Z M32.0565937,49.8549727 C32.0565937,50.9749453 31.1454492,51.8859844 30.025582,51.8859844 L4.14007031,51.8859844 C3.02020312,51.8859844 2.10905859,50.9749453 2.10905859,49.8549727 L2.10905859,46.1828672 L32.0566992,46.1828672 L32.0566992,49.8549727 L32.0565937,49.8549727 Z M32.0565938,44.0739141 L30.4569492,44.0739141 L30.7768359,43.8891328 C31.2811875,43.5980391 31.4540508,42.9530977 31.1627461,42.4486406 L28.3987266,37.6610977 L32.0565938,37.1411367 L32.0565938,44.0739141 Z M27.2628281,35.692418 L22.9717266,28.2601406 L30.6412031,18.4661016 L39.5764102,33.9421641 L27.2628281,35.692418 Z M41.8269023,33.6222773 L32.0429883,16.6759805 L33.7729922,14.466832 L44.6044219,33.2274023 L41.8269023,33.6222773 Z" id="Shape"></path>
                    <path d="M53.8584609,15.4132031 C53.5672617,14.908957 52.9225313,14.7359883 52.4180742,15.027293 L47.2476797,18.0124805 C46.7433281,18.3035742 46.5704648,18.9485156 46.8617695,19.4528672 C47.0572031,19.7911055 47.4114727,19.9802109 47.7759727,19.9802109 C47.9548477,19.9802109 48.1361484,19.9346484 48.3021563,19.8387773 L53.4725508,16.8535898 C53.9769023,16.5624961 54.1497656,15.9175547 53.8584609,15.4132031 Z" id="Shape"></path>
                    <path d="M44.3141719,10.7834414 C43.7514961,10.6326211 43.1735273,10.9666406 43.022707,11.5291055 L42.2689219,14.3423789 C42.1181016,14.9050547 42.4520156,15.4832344 43.0145859,15.6339492 C43.1060273,15.658418 43.1977852,15.670125 43.2881719,15.670125 C43.7537109,15.670125 44.1798047,15.3594141 44.3060508,14.8882852 L45.0598359,12.0750117 C45.2105508,11.5123359 44.8767422,10.9341563 44.3141719,10.7834414 Z" id="Shape"></path>
                    <path d="M52.3677656,24.5781211 L49.4604141,23.7990234 C48.8977383,23.6482031 48.3197695,23.9822227 48.1689492,24.5446875 C48.0181289,25.1072578 48.352043,25.6854375 48.9146133,25.8362578 L51.8219648,26.6153555 C51.9134062,26.6398242 52.0051641,26.6515312 52.0955508,26.6515312 C52.5610898,26.6515312 52.9871836,26.3408203 53.1134297,25.8696914 C53.2641445,25.3070156 52.9303359,24.7287305 52.3677656,24.5781211 Z" id="Shape"></path>
                    <path d="M20.00025,11.9384297 L5.44946484,11.9384297 C4.86717188,11.9384297 4.39498828,12.4105078 4.39498828,12.9929062 C4.39498828,13.5753047 4.86717188,14.0473828 5.44946484,14.0473828 L20.0003555,14.0473828 C20.5826484,14.0473828 21.054832,13.5753047 21.054832,12.9929062 C21.054832,12.4105078 20.582543,11.9384297 20.00025,11.9384297 Z" id="Shape"></path>
                    <path d="M20.746125,17.3091094 C20.5499531,17.1118828 20.2779492,17.0000859 20.0005664,17.0000859 C19.7221289,17.0000859 19.4511797,17.1118828 19.2550078,17.3091094 C19.0577812,17.5052813 18.9460898,17.7772852 18.9460898,18.054668 C18.9460898,18.3320508 19.0578867,18.6040547 19.2550078,18.8002266 C19.4511797,18.996293 19.7221289,19.1091445 20.0005664,19.1091445 C20.2779492,19.1091445 20.5499531,18.996293 20.746125,18.8002266 C20.9421914,18.6040547 21.055043,18.3320508 21.055043,18.054668 C21.055043,17.7772852 20.9422969,17.5052812 20.746125,17.3091094 Z" id="Shape"></path>
                    <path d="M15.6416484,16.9999805 L5.44946484,16.9999805 C4.86717188,16.9999805 4.39498828,17.4720586 4.39498828,18.054457 C4.39498828,18.6368555 4.86717188,19.1089336 5.44946484,19.1089336 L15.6416484,19.1089336 C16.2239414,19.1089336 16.696125,18.6368555 16.696125,18.054457 C16.696125,17.4720586 16.2239414,16.9999805 15.6416484,16.9999805 Z" id="Shape"></path>
                    <path d="M17.4950508,22.0615313 L9.49999219,22.0615313 C8.91769922,22.0615313 8.44551563,22.5336094 8.44551563,23.1160078 C8.44551563,23.6984063 8.91759375,24.1704844 9.49999219,24.1704844 L17.4949453,24.1704844 C18.0772383,24.1704844 18.5494219,23.6984063 18.5494219,23.1160078 C18.5494219,22.5336094 18.0773438,22.0615313 17.4950508,22.0615313 Z" id="Shape"></path>
                    <path d="M5.48954297,22.0615313 L5.44060547,22.0615313 C4.8583125,22.0615313 4.38612891,22.5336094 4.38612891,23.1160078 C4.38612891,23.6984063 4.8583125,24.1704844 5.44060547,24.1704844 L5.48954297,24.1704844 C6.07183594,24.1704844 6.54401953,23.6984063 6.54401953,23.1160078 C6.54401953,22.5336094 6.07183594,22.0615313 5.48954297,22.0615313 Z" id="Shape"></path>
                </g>
            </g>
        </g>
    </g>
</svg>