<?xml version="1.0" encoding="UTF-8"?>
<svg width="43px" height="54px" viewBox="0 0 43 54" version="1.1" xmlns="http://www.w3.org/2000/svg" xmlns:xlink="http://www.w3.org/1999/xlink">
    <!-- Generator: Sketch 50.2 (55047) - http://www.bohemiancoding.com/sketch -->
    <title>transaction</title>
    <desc>Created with Sketch.</desc>
    <defs></defs>
    <g id="ICO-LandingPage" stroke="none" stroke-width="1" fill="none" fill-rule="evenodd">
        <g id="Desktop-HD" transform="translate(-480.000000, -1992.000000)" fill="#4B49FF" fill-rule="nonzero">
            <g id="Group-26" transform="translate(419.000000, 1992.000000)">
                <g id="transaction" transform="translate(61.000000, 0.000000)">
                    <rect id="Rectangle-path" x="3.58333333" y="45" width="1.79166667" height="1.8"></rect>
                    <rect id="Rectangle-path" x="5.375" y="26.1" width="1.79166667" height="1.8"></rect>
                    <rect id="Rectangle-path" x="14.3333333" y="3.6" width="1.79166667" height="1.8"></rect>
                    <rect id="Rectangle-path" x="17.9166667" y="3.6" width="1.79166667" height="1.8"></rect>
                    <path d="M43,31.0788 L43,27 C43,25.2603 41.5962292,23.85 39.8645833,23.85 C39.2834115,23.8521375 38.7145573,24.018075 38.2225208,24.3288 C37.5180599,22.763475 35.6839531,22.0683375 34.125987,22.776075 C34.0976562,22.7889 34.0695495,22.802175 34.0416667,22.8159 L34.0416667,4.5 C34.0387552,2.016 32.035,0.002925 29.5625,0 L4.47916667,0 C2.00666667,0.002925 0.00291145833,2.016 0,4.5 L0,49.5 C0.00291145833,51.984 2.00666667,53.997075 4.47916667,54 L26.875,54 L26.875,50.4 L39.4166667,50.4 L39.4166667,54 L41.2083333,54 L41.2083333,50.4 L42.1041667,50.4 C42.5988906,50.4 43,49.997025 43,49.5 L43,42.3 C43,41.802975 42.5988906,41.4 42.1041667,41.4 L41.2083333,41.4 L41.2083333,38.9088 C42.3837786,36.467325 42.9961927,33.79095 43,31.0788 Z M1.79166667,4.5 C1.79166667,3.0088125 2.99488281,1.8 4.47916667,1.8 L29.5625,1.8 C31.0467839,1.8 32.25,3.0088125 32.25,4.5 L32.25,7.2 L1.79166667,7.2 L1.79166667,4.5 Z M25.0833333,52.2 L4.47916667,52.2 C2.99488281,52.2 1.79166667,50.9911875 1.79166667,49.5 L1.79166667,9 L32.25,9 L32.25,21.4659 C31.4032135,21.0447 30.4092865,21.0447 29.5625,21.4659 L29.5625,16.65 C29.5625,14.9103 28.1587292,13.5 26.4270833,13.5 C24.6954375,13.5 23.2916667,14.9103 23.2916667,16.65 L23.2916667,27.081 C20.3375443,27.6102 18.3698464,30.4450875 18.8964844,33.41295 C19.1772161,34.994475 20.1371016,36.3715875 21.5206042,37.1772 L24.1185208,38.6667 C24.7153698,39.011625 25.0833333,39.6507375 25.0833333,40.3425 L25.0833333,41.4 L24.1875,41.4 C23.692776,41.4 23.2916667,41.802975 23.2916667,42.3 L23.2916667,45 L7.16666667,45 L7.16666667,46.8 L23.2916667,46.8 L23.2916667,49.5 C23.2916667,49.997025 23.692776,50.4 24.1875,50.4 L25.0833333,50.4 L25.0833333,52.2 Z M41.2083333,48.6 L25.0833333,48.6 L25.0833333,43.2 L41.2083333,43.2 L41.2083333,48.6 Z M39.50625,38.2977 C39.4457812,38.423025 39.415099,38.560725 39.4166667,38.7 L39.4166667,41.4 L26.875,41.4 L26.875,40.3425 C26.8739922,39.0036375 26.160125,37.7677125 25.0036042,37.1025 L22.4056875,35.6121 C21.2705547,34.948125 20.5814349,33.7194 20.6041667,32.4 C20.6103255,30.7634625 21.7144401,29.3369625 23.2916667,28.9278 L23.2916667,32.4 L25.0833333,32.4 L25.0833333,16.65 C25.0833333,15.9044625 25.6849974,15.3 26.4270833,15.3 C27.1691693,15.3 27.7708333,15.9044625 27.7708333,16.65 L27.7708333,28.8 L29.5625,28.8 L29.5625,24.3 C29.5625,23.5544625 30.1641641,22.95 30.90625,22.95 C31.6483359,22.95 32.25,23.5544625 32.25,24.3 L32.25,28.8 L34.0416667,28.8 L34.0416667,25.65 C34.0416667,24.9044625 34.6433307,24.3 35.3854167,24.3 C36.1275026,24.3 36.7291667,24.9044625 36.7291667,25.65 L36.7291667,28.8 L38.5208333,28.8 L38.5208333,27 C38.5208333,26.2544625 39.1224974,25.65 39.8645833,25.65 C40.6066693,25.65 41.2083333,26.2544625 41.2083333,27 L41.2083333,31.0752 C41.2039661,33.5824875 40.6213385,36.054675 39.50625,38.2977 Z" id="Shape"></path>
                    <path d="M14.2177708,18.2651625 C14.0112813,17.59815 13.5423125,17.044875 12.9197083,16.7337 L11.1737292,15.8562 C10.7956875,15.666525 10.642388,15.2049375 10.8311849,14.8251375 C10.9606328,14.5648125 11.2253516,14.400225 11.5150417,14.4 L11.776625,14.4 C12.1987865,14.4010125 12.5406589,14.744475 12.5416667,15.1686 L12.5416667,15.3 L14.3333333,15.3 L14.3333333,15.1686 C14.3291901,14.05035 13.604237,13.063725 12.5416667,12.7305 L12.5416667,11.7 L10.75,11.7 L10.75,12.7305 C9.40636198,13.15035 8.65598958,14.58495 9.07389583,15.9348375 C9.28038542,16.60185 9.74935417,17.155125 10.3719583,17.4663 L12.1179375,18.3438 C12.4959792,18.533475 12.6492786,18.9950625 12.4604818,19.3748625 C12.3310339,19.6351875 12.0663151,19.799775 11.776625,19.8 L11.5150417,19.8 C11.0928802,19.7989875 10.7510078,19.455525 10.75,19.0314 L10.75,18.9 L8.95833333,18.9 L8.95833333,19.0314 C8.96247656,20.14965 9.68742969,21.136275 10.75,21.4695 L10.75,22.5 L12.5416667,22.5 L12.5416667,21.4695 C13.8853047,21.04965 14.6356771,19.61505 14.2177708,18.2651625 Z" id="Shape"></path>
                    <rect id="Rectangle-path" x="4.47916667" y="29.7" width="11.6458333" height="1.8"></rect>
                    <rect id="Rectangle-path" x="4.47916667" y="33.3" width="11.6458333" height="1.8"></rect>
                    <rect id="Rectangle-path" x="4.47916667" y="36.9" width="11.6458333" height="1.8"></rect>
                    <rect id="Rectangle-path" x="8.95833333" y="26.1" width="7.16666667" height="1.8"></rect>
                    <rect id="Rectangle-path" x="16.125" y="48.6" width="1.79166667" height="1.8"></rect>
                    <rect id="Rectangle-path" x="37.625" y="45" width="1.79166667" height="1.8"></rect>
                </g>
            </g>
        </g>
    </g>
</svg>